<?xml version="1.0" standalone="no"?>
<!DOCTYPE svg PUBLIC "-//W3C//DTD SVG 20010904//EN"
 "http://www.w3.org/TR/2001/REC-SVG-20010904/DTD/svg10.dtd">
<svg version="1.0" xmlns="http://www.w3.org/2000/svg"
 width="152.000000pt" height="152.000000pt" viewBox="0 0 152.000000 152.000000"
 preserveAspectRatio="xMidYMid meet">
<metadata>
Created by potrace 1.14, written by Peter Selinger 2001-2017
</metadata>
<g transform="translate(0.000000,152.000000) scale(0.100000,-0.100000)"
fill="#000000" stroke="none">
<path d="M72 1490 c-63 -39 -62 -23 -62 -733 l0 -644 23 -34 c12 -18 34 -39
47 -46 19 -10 177 -13 683 -13 722 0 700 -2 732 60 13 25 15 118 15 687 -1
712 1 686 -56 724 -28 18 -53 19 -689 19 -644 0 -661 -1 -693 -20z m542 -302
c44 -13 136 -96 136 -123 0 -25 17 -17 30 15 26 62 122 119 201 120 61 0 143
-41 179 -92 43 -59 55 -130 36 -212 -16 -66 -51 -146 -87 -198 -11 -15 -19
-43 -19 -67 l0 -41 50 0 50 0 0 -75 0 -75 -50 0 -50 0 0 -55 0 -55 -75 0 -75
0 0 55 0 55 -56 0 c-40 0 -67 -6 -90 -21 l-34 -20 -60 37 c-83 51 -198 151
-256 221 -26 32 -63 92 -83 133 -33 69 -36 83 -36 166 0 83 2 94 30 139 54 87
156 123 259 93z"/>
<path d="M460 1165 c-44 -20 -77 -51 -97 -90 -13 -25 -5 -20 41 24 30 30 59
52 63 48 4 -4 -23 -38 -60 -75 -37 -37 -67 -74 -67 -82 0 -8 20 5 45 30 24 24
48 41 52 37 4 -4 -17 -31 -45 -60 -29 -29 -52 -61 -52 -72 0 -16 7 -12 40 20
54 52 65 36 12 -18 -58 -59 -58 -96 0 -40 39 38 48 20 10 -20 -18 -18 -32 -41
-32 -50 0 -23 9 -21 37 5 33 31 38 16 7 -21 -20 -24 -24 -35 -16 -43 9 -9 18
-6 37 12 31 29 34 6 4 -27 -18 -19 -20 -25 -9 -38 12 -14 15 -13 36 6 31 30
44 16 15 -15 -36 -38 -8 -64 31 -29 10 9 21 13 26 9 4 -4 -4 -17 -17 -27 -23
-19 -23 -21 -8 -36 15 -16 18 -15 42 7 14 13 25 19 25 13 0 -6 -7 -16 -15 -23
-19 -16 -19 -34 0 -50 13 -10 19 -10 33 4 26 23 39 20 17 -4 -17 -19 -18 -22
-2 -37 15 -16 18 -15 35 0 26 24 39 21 17 -3 -18 -19 -18 -22 -2 -38 14 -14
21 -14 37 -4 25 15 38 16 22 0 -17 -17 -15 -24 13 -42 23 -15 27 -15 57 4 30
18 33 25 38 82 l5 63 53 3 52 3 0 50 0 49 68 0 c80 0 86 4 131 99 43 91 56
162 42 226 -36 159 -226 218 -345 107 -32 -30 -65 -96 -66 -129 0 -39 -17 -25
-23 18 -7 51 -41 102 -92 136 -50 34 -141 42 -195 18z"/>
<path d="M960 658 c0 -20 1 -21 20 -3 11 10 20 20 20 22 0 1 -9 3 -20 3 -14 0
-20 -7 -20 -22z"/>
<path d="M1000 644 c-22 -20 -40 -45 -40 -55 0 -12 -7 -19 -18 -19 -25 0 -95
-74 -90 -95 2 -12 30 11 103 84 55 56 102 106 103 111 7 21 -20 8 -58 -26z"/>
<path d="M970 545 c-74 -75 -82 -85 -60 -85 18 0 45 20 93 68 59 59 84 102 59
102 -4 0 -45 -38 -92 -85z"/>
<path d="M850 550 c0 -23 10 -26 28 -8 18 18 15 28 -8 28 -13 0 -20 -7 -20
-20z"/>
<path d="M1017 512 c-38 -38 -57 -66 -57 -82 0 -22 9 -15 75 50 41 41 75 78
75 82 0 24 -43 1 -93 -50z"/>
<path d="M1057 472 c-92 -92 -113 -122 -84 -122 19 0 210 197 202 209 -3 6 -9
11 -13 11 -4 0 -51 -44 -105 -98z"/>
<path d="M1145 480 c-18 -20 -17 -20 8 -20 20 0 27 5 27 20 0 11 -4 20 -8 20
-5 0 -17 -9 -27 -20z"/>
<path d="M1040 375 l-23 -25 26 0 c22 0 27 5 27 25 0 14 -1 25 -3 25 -2 0 -14
-11 -27 -25z"/>
</g>
</svg>
