<svg xmlns="http://www.w3.org/2000/svg"  xmlns:xlink="http://www.w3.org/1999/xlink">
  <symbol id="icon-search" viewBox="0 0 20 20" xmlns="http://www.w3.org/2000/svg">
      <path d="M19.28 18.219L14.586 13.525C15.78 12.094 16.5 10.255 16.5 8.25C16.5 3.701 12.799 0 8.25 0C3.701 0 0 3.701 0 8.25C0 12.799 3.701 16.5 8.25 16.5C10.255 16.5 12.094 15.7801 13.525 14.5861L18.219 19.28C18.365 19.426 18.557 19.5 18.749 19.5C18.941 19.5 19.133 19.427 19.279 19.28C19.573 18.987 19.573 18.512 19.28 18.219ZM1.5 8.25C1.5 4.528 4.528 1.5 8.25 1.5C11.972 1.5 15 4.528 15 8.25C15 11.972 11.972 15 8.25 15C4.528 15 1.5 11.972 1.5 8.25Z" fill="#253B6E"/>
  </symbol>
  <symbol id="icon-favourite" viewBox="0 0 20 20" xmlns="http://www.w3.org/2000/svg">
    <path d="M18.9344 8.63037L15.8204 11.6226L16.5554 15.8435C16.6754 16.5325 16.3974 17.2195 15.8294 17.6355C15.2504 18.0585 14.4944 18.1166 13.8564 17.7876L10.0004 15.7905L6.14445 17.7876C5.87045 17.9296 5.57345 17.9995 5.27845 17.9995C4.88845 17.9995 4.50142 17.8765 4.17142 17.6355C3.60442 17.2195 3.32544 16.5325 3.44544 15.8435L4.18043 11.6226L1.06644 8.63037C0.556443 8.14037 0.373422 7.41951 0.589422 6.74951C0.807422 6.07151 1.38542 5.58857 2.09742 5.48657L6.40644 4.86938L8.33243 1.02441C8.64843 0.392414 9.28843 0.000488281 10.0004 0.000488281C10.7124 0.000488281 11.3524 0.393414 11.6684 1.02441L13.5944 4.86938L17.9034 5.48657C18.6144 5.58857 19.1924 6.07151 19.4104 6.74951C19.6264 7.41951 19.4444 8.14037 18.9344 8.63037Z" stroke-width="1.5" stroke-linejoin="round"/>
  </symbol>
  <symbol id="icon-cart" viewBox="0 0 20 20" xmlns="http://www.w3.org/2000/svg">
      <path d="M8.50101 12.7514V15.7514C8.50101 16.1654 8.16501 16.5014 7.75101 16.5014C7.33701 16.5014 7.00101 16.1654 7.00101 15.7514V12.7514C7.00101 12.3374 7.33701 12.0014 7.75101 12.0014C8.16501 12.0014 8.50101 12.3374 8.50101 12.7514ZM11.751 12.0014C11.337 12.0014 11.001 12.3374 11.001 12.7514V15.7514C11.001 16.1654 11.337 16.5014 11.751 16.5014C12.165 16.5014 12.501 16.1654 12.501 15.7514V12.7514C12.501 12.3374 12.165 12.0014 11.751 12.0014ZM17.948 10.2154L17.181 16.2254C16.943 18.0924 15.344 19.5005 13.461 19.5005H6.06302C4.18702 19.5005 2.588 18.0974 2.345 16.2374L1.55499 10.2154C0.637993 9.76842 0 8.83646 0 7.75046C0 6.23346 1.233 5.00046 2.75 5.00046H4.32602L7.10699 0.364471C7.31999 0.0094713 7.78102 -0.106609 8.13602 0.107391C8.49102 0.320391 8.60701 0.781444 8.39301 1.13644L6.07401 5.00046H13.425L11.106 1.13644C10.893 0.781444 11.008 0.320391 11.363 0.107391C11.717 -0.105609 12.178 0.0094713 12.392 0.364471L15.173 5.00046H16.751C18.268 5.00046 19.501 6.23346 19.501 7.75046C19.501 8.83646 18.864 9.76842 17.948 10.2154ZM16.399 10.5014H3.10602L3.83301 16.0434C3.97901 17.1594 4.93802 18.0014 6.06302 18.0014H13.461C14.59 18.0014 15.55 17.1565 15.692 16.0365L16.399 10.5014ZM18.001 7.75143C18.001 7.06243 17.44 6.50143 16.751 6.50143H2.75101C2.06201 6.50143 1.50101 7.06243 1.50101 7.75143C1.50101 8.44043 2.06201 9.00143 2.75101 9.00143H16.751C17.44 9.00143 18.001 8.44043 18.001 7.75143Z"/>
  </symbol>
  <symbol id="icon-account" viewBox="0 0 16 20" xmlns="http://www.w3.org/2000/svg">
      <path d="M7.74799 10.5C10.643 10.5 12.998 8.145 12.998 5.25C12.998 2.355 10.643 0 7.74799 0C4.85299 0 2.49799 2.355 2.49799 5.25C2.49799 8.145 4.85299 10.5 7.74799 10.5ZM7.74799 1.5C9.81599 1.5 11.498 3.182 11.498 5.25C11.498 7.318 9.81599 9 7.74799 9C5.67999 9 3.99799 7.318 3.99799 5.25C3.99799 3.182 5.67999 1.5 7.74799 1.5ZM15.498 15.717V16.728C15.498 17.663 15.157 18.559 14.537 19.25C14.389 19.416 14.184 19.5 13.978 19.5C13.8 19.5 13.621 19.437 13.478 19.309C13.169 19.033 13.144 18.559 13.42 18.25C13.793 17.833 13.999 17.293 13.999 16.729V15.718C13.999 14.204 12.995 12.894 11.556 12.533C11.303 12.469 11.031 12.504 10.81 12.629C8.909 13.687 6.58297 13.683 4.69397 12.632C4.46797 12.503 4.19599 12.466 3.94299 12.532C2.50399 12.894 1.49896 14.204 1.49896 15.718V16.729C1.49896 17.294 1.705 17.834 2.078 18.25C2.354 18.559 2.32796 19.033 2.01996 19.309C1.70996 19.586 1.236 19.559 0.960999 19.251C0.340999 18.559 0 17.663 0 16.729V15.718C0 13.516 1.47097 11.608 3.57697 11.078C4.19997 10.92 4.87697 11.01 5.43097 11.326C6.86097 12.122 8.63301 12.125 10.075 11.323C10.622 11.011 11.299 10.922 11.924 11.079C14.027 11.606 15.498 13.514 15.498 15.717Z"/>
  </symbol>
  <symbol id="icon-phone" viewBox="0 0 21 21" xmlns="http://www.w3.org/2000/svg">
      <path d="M20.9317 15.4544C20.9069 15.309 20.8768 15.182 20.8456 15.0689C20.6571 14.3958 20.0712 13.883 19.3528 13.7646L14.6871 12.9881C14 12.8728 13.3118 13.1388 12.8896 13.6795C12.8314 13.7538 12.7754 13.8292 12.7237 13.9056C12.6473 14.0176 12.4954 14.1222 12.3306 14.05C9.91055 12.9977 7.9999 11.0871 6.94872 8.667C6.87549 8.50006 6.97777 8.3536 7.08762 8.27929C7.18994 8.21036 7.28903 8.13609 7.38488 8.05854C7.9094 7.6342 8.17008 6.95566 8.06453 6.28683L7.34183 1.7041C7.23089 1.00189 6.7495 0.427795 6.08389 0.208083C5.92773 0.156386 5.74679 0.109048 5.53677 0.0713524C4.17326 -0.172054 2.77848 0.213478 1.70684 1.13325C0.5835 2.09826 -0.0390286 3.50061 0.00189831 4.97828C0.237767 13.7258 7.27288 20.762 16.0205 20.9979C16.0646 20.999 16.1088 21 16.153 21C17.5714 21 18.9123 20.386 19.8482 19.3026C20.7756 18.2288 21.1708 16.8254 20.9317 15.4544ZM18.6237 18.2471C17.9764 18.9956 17.035 19.3952 16.0625 19.3845C8.17435 19.1712 1.82852 12.8243 1.61527 4.93516C1.58942 3.94538 2.00516 3.00626 2.75908 2.35897C3.32883 1.87 4.00842 1.61365 4.7171 1.61365C4.89374 1.61365 5.07256 1.62975 5.25134 1.66098C5.37628 1.6836 5.48287 1.7106 5.57549 1.74184C5.66488 1.77092 5.73058 1.85382 5.74673 1.95614L6.46944 6.53886C6.48559 6.63902 6.44684 6.74028 6.37037 6.80167C6.30791 6.85229 6.24432 6.89964 6.17862 6.94379C5.38808 7.48123 5.09519 8.45485 5.46676 9.31108C6.68165 12.107 8.89061 14.316 11.6855 15.5309C12.5385 15.9014 13.5143 15.6096 14.0582 14.8158C14.0905 14.7695 14.1238 14.7232 14.1605 14.6758C14.2186 14.6015 14.3199 14.5659 14.4222 14.581L19.0879 15.3575C19.187 15.3747 19.2699 15.435 19.2903 15.505C19.3097 15.5718 19.3259 15.6462 19.341 15.7313C19.496 16.623 19.2344 17.5395 18.6237 18.2471Z"/>
  </symbol>
  <symbol id="icon-mail" viewBox="0 0 22 18" xmlns="http://www.w3.org/2000/svg">
      <path d="M16.641 0H5.35897C2.40421 0 0 2.47471 0 5.51613V12.4839C0 15.5253 2.40421 18 5.35897 18H16.641C19.5958 18 22 15.5253 22 12.4839V5.51613C22 2.47471 19.5958 0 16.641 0ZM5.35897 1.74194H16.641C18.1686 1.74194 19.4785 2.71038 20.029 4.07954L13.0341 8.88035C11.7987 9.72694 10.2012 9.72694 8.96697 8.88035L1.97209 4.07954C2.52152 2.70922 3.83138 1.74194 5.35897 1.74194ZM16.641 16.2581H5.35897C3.33723 16.2581 1.69231 14.5649 1.69231 12.4839V5.98181L8.02717 10.3297C8.92973 10.9487 9.96431 11.2586 11 11.2586C12.0346 11.2586 13.0691 10.9487 13.9728 10.3297L20.3077 5.98181V12.4839C20.3077 14.5649 18.6628 16.2581 16.641 16.2581Z"/>
  </symbol>
  <symbol id="icon-arrow" viewBox="0 0 12 8" fill="none" xmlns="http://www.w3.org/2000/svg">
    <path d="M1 1.5L6 6.5L11 1.5" stroke="#253B6E" stroke-width="2" stroke-linecap="round" stroke-linejoin="round"/>
  </symbol>
  <symbol id="icon-discount" viewBox="0 0 25 24" fill="none" xmlns="http://www.w3.org/2000/svg">
    <path d="M23.7552 9.16217L23.0439 8.44948C22.7527 8.15775 22.5918 7.76876 22.5918 7.35393V6.35199C22.5918 4.13876 20.7955 2.33912 18.5865 2.33912H17.5852C17.1724 2.33912 16.7841 2.17796 16.4917 1.88623L15.7804 1.17339C14.2188 -0.391131 11.678 -0.391131 10.1164 1.17339L9.40507 1.88623C9.11388 2.17796 8.72563 2.33912 8.31158 2.33912H7.31154C5.10249 2.33912 3.30625 4.13876 3.30625 6.35199V7.35393C3.30625 7.76753 3.14533 8.15652 2.85415 8.44948L2.14273 9.16217C0.581166 10.7267 0.581166 13.2724 2.14273 14.8369L2.85415 15.5496C3.14533 15.8414 3.30625 16.2303 3.30625 16.6452V17.6471C3.30625 19.8603 5.10249 21.66 7.31154 21.66H8.31158C8.7244 21.66 9.11266 21.8211 9.40507 22.1129L10.1164 22.8257C10.8978 23.6086 11.9225 24 12.9484 24C13.9743 24 14.999 23.6086 15.7804 22.8257L16.4917 22.1129C16.7829 21.8211 17.1711 21.66 17.5852 21.66H18.5865C20.7943 21.66 22.5918 19.8603 22.5918 17.6471V16.6452C22.5918 16.2316 22.7527 15.8426 23.0439 15.5496L23.7552 14.8369C25.3168 13.2724 25.3168 10.7267 23.7552 9.16217ZM22.4517 13.5309L21.7404 14.2435C21.1003 14.8849 20.7476 15.7366 20.7476 16.6438V17.6459C20.7476 18.8412 19.777 19.8124 18.5852 19.8124H17.5839C16.6784 19.8124 15.8271 20.1656 15.1882 20.807L14.4768 21.5196C13.6327 22.3653 12.2616 22.3653 11.4188 21.5196L10.7074 20.807C10.0673 20.1656 9.21707 19.8124 8.31158 19.8124H7.31154C6.11856 19.8124 5.14917 18.8399 5.14917 17.6459V16.6438C5.14917 15.7366 4.79658 14.8836 4.15647 14.2435L3.44506 13.5309C2.60223 12.6852 2.60223 11.3115 3.44506 10.467L4.15647 9.75435C4.79658 9.11303 5.14917 8.26113 5.14917 7.35393V6.35199C5.14917 5.15675 6.11978 4.18553 7.31154 4.18553H8.31158C9.21707 4.18553 10.0685 3.83227 10.7074 3.19095L11.4188 2.47826C12.2629 1.6326 13.6339 1.6326 14.4768 2.47826L15.1882 3.19095C15.8283 3.83227 16.6784 4.18553 17.5839 4.18553H18.5852C19.777 4.18553 20.7476 5.15798 20.7476 6.35199V7.35393C20.7476 8.26113 21.1003 9.11426 21.7404 9.75435L22.4517 10.467C23.2945 11.3127 23.2945 12.6864 22.4517 13.5309ZM17.2867 7.6531C17.6466 8.01376 17.6466 8.5985 17.2867 8.95917L9.91499 16.3448C9.73561 16.5245 9.49968 16.6156 9.26379 16.6156C9.02789 16.6156 8.79197 16.5257 8.61259 16.3448C8.2526 15.9841 8.2526 15.3994 8.61259 15.0387L15.9843 7.6531C16.3442 7.29367 16.9267 7.29367 17.2867 7.6531ZM17.2498 15.0769C17.2498 15.7564 16.6993 16.3078 16.0212 16.3078C15.343 16.3078 14.7925 15.7564 14.7925 15.0769C14.7925 14.3974 15.343 13.846 16.0212 13.846C16.6993 13.846 17.2498 14.3974 17.2498 15.0769ZM8.64948 8.9222C8.64948 8.24273 9.1999 7.69127 9.87809 7.69127C10.5563 7.69127 11.1067 8.24273 11.1067 8.9222C11.1067 9.60168 10.5563 10.1531 9.87809 10.1531C9.1999 10.1531 8.64948 9.60168 8.64948 8.9222Z" fill="#253B6E"/>
  </symbol>
  <symbol id="icon-card" viewBox="0 0 20 16" fill="none" xmlns="http://www.w3.org/2000/svg">
    <path d="M14.75 0H4.75C2.131 0 0 2.131 0 4.75V10.75C0 13.369 2.131 15.5 4.75 15.5H14.75C17.369 15.5 19.5 13.369 19.5 10.75V4.75C19.5 2.131 17.369 0 14.75 0ZM4.75 1.5H14.75C16.542 1.5 18 2.958 18 4.75V5H1.5V4.75C1.5 2.958 2.958 1.5 4.75 1.5ZM14.75 14H4.75C2.958 14 1.5 12.542 1.5 10.75V6.5H18V10.75C18 12.542 16.542 14 14.75 14ZM8.5 10.75C8.5 11.164 8.164 11.5 7.75 11.5H4.75C4.336 11.5 4 11.164 4 10.75C4 10.336 4.336 10 4.75 10H7.75C8.164 10 8.5 10.336 8.5 10.75Z" fill="#253B6E"/>
  </symbol>
</svg>
