<svg xmlns="http://www.w3.org/2000/svg"  xmlns:xlink="http://www.w3.org/1999/xlink">
    <symbol id="icon-search" viewBox="0 0 20 20" xmlns="http://www.w3.org/2000/svg">
        <path d="M19.28 18.219L14.586 13.525C15.78 12.094 16.5 10.255 16.5 8.25C16.5 3.701 12.799 0 8.25 0C3.701 0 0 3.701 0 8.25C0 12.799 3.701 16.5 8.25 16.5C10.255 16.5 12.094 15.7801 13.525 14.5861L18.219 19.28C18.365 19.426 18.557 19.5 18.749 19.5C18.941 19.5 19.133 19.427 19.279 19.28C19.573 18.987 19.573 18.512 19.28 18.219ZM1.5 8.25C1.5 4.528 4.528 1.5 8.25 1.5C11.972 1.5 15 4.528 15 8.25C15 11.972 11.972 15 8.25 15C4.528 15 1.5 11.972 1.5 8.25Z" fill="#253B6E"/>
    </symbol>
    <symbol id="icon-favourite" viewBox="0 0 20 19" xmlns="http://www.w3.org/2000/svg">
        <path d="M19.3992 6.92395C19.1512 6.15395 18.4962 5.60404 17.6892 5.48804L13.5092 4.89001L11.6422 1.16199C11.2832 0.444987 10.5592 0 9.75022 0C8.94122 0 8.21722 0.444987 7.85822 1.16199L5.99122 4.89001L1.81122 5.48901C1.00422 5.60401 0.349232 6.15495 0.101232 6.92395C-0.143768 7.68495 0.063224 8.50504 0.643224 9.06104L3.66123 11.959L2.94922 16.049C2.81222 16.833 3.12823 17.6131 3.77323 18.0861C4.14723 18.3601 4.58523 18.499 5.02723 18.499C5.36123 18.499 5.69721 18.4191 6.00821 18.2581L9.74921 16.3199L13.4902 18.2581C14.2142 18.6321 15.0702 18.5661 15.7262 18.0861C16.3712 17.6131 16.6872 16.833 16.5502 16.049L15.8382 11.959L18.8562 9.06104C19.4372 8.50403 19.6442 7.68495 19.3992 6.92395ZM17.8182 7.979L14.5122 11.1541C14.3322 11.3271 14.2502 11.578 14.2932 11.823L15.0732 16.307C15.1292 16.626 14.9282 16.811 14.8402 16.876C14.7662 16.929 14.5012 17.092 14.1812 16.926L10.0952 14.809C9.87822 14.697 9.62122 14.697 9.40522 14.809L5.31922 16.926C5.00022 17.093 4.73422 16.93 4.66022 16.876C4.57222 16.811 4.37122 16.626 4.42722 16.306L5.20722 11.823C5.25022 11.577 5.16722 11.3261 4.98822 11.1541L1.68223 7.979C1.44423 7.75 1.49521 7.48606 1.52921 7.38306C1.56421 7.27606 1.68121 7.02202 2.02421 6.97302L6.59223 6.31897C6.83523 6.28397 7.04622 6.13199 7.15622 5.91199L9.19922 1.83301C9.35022 1.53101 9.63522 1.49902 9.75022 1.49902C9.86522 1.49902 10.1492 1.53101 10.3012 1.83301L12.3442 5.91199C12.4542 6.13199 12.6652 6.28397 12.9082 6.31897L17.4762 6.97205C17.8192 7.02105 17.9362 7.27496 17.9712 7.38196C18.0042 7.48596 18.0562 7.75 17.8182 7.979Z"/>
    </symbol>
    <symbol id="icon-cart" viewBox="0 0 20 20" xmlns="http://www.w3.org/2000/svg">
        <path d="M8.50101 12.7514V15.7514C8.50101 16.1654 8.16501 16.5014 7.75101 16.5014C7.33701 16.5014 7.00101 16.1654 7.00101 15.7514V12.7514C7.00101 12.3374 7.33701 12.0014 7.75101 12.0014C8.16501 12.0014 8.50101 12.3374 8.50101 12.7514ZM11.751 12.0014C11.337 12.0014 11.001 12.3374 11.001 12.7514V15.7514C11.001 16.1654 11.337 16.5014 11.751 16.5014C12.165 16.5014 12.501 16.1654 12.501 15.7514V12.7514C12.501 12.3374 12.165 12.0014 11.751 12.0014ZM17.948 10.2154L17.181 16.2254C16.943 18.0924 15.344 19.5005 13.461 19.5005H6.06302C4.18702 19.5005 2.588 18.0974 2.345 16.2374L1.55499 10.2154C0.637993 9.76842 0 8.83646 0 7.75046C0 6.23346 1.233 5.00046 2.75 5.00046H4.32602L7.10699 0.364471C7.31999 0.0094713 7.78102 -0.106609 8.13602 0.107391C8.49102 0.320391 8.60701 0.781444 8.39301 1.13644L6.07401 5.00046H13.425L11.106 1.13644C10.893 0.781444 11.008 0.320391 11.363 0.107391C11.717 -0.105609 12.178 0.0094713 12.392 0.364471L15.173 5.00046H16.751C18.268 5.00046 19.501 6.23346 19.501 7.75046C19.501 8.83646 18.864 9.76842 17.948 10.2154ZM16.399 10.5014H3.10602L3.83301 16.0434C3.97901 17.1594 4.93802 18.0014 6.06302 18.0014H13.461C14.59 18.0014 15.55 17.1565 15.692 16.0365L16.399 10.5014ZM18.001 7.75143C18.001 7.06243 17.44 6.50143 16.751 6.50143H2.75101C2.06201 6.50143 1.50101 7.06243 1.50101 7.75143C1.50101 8.44043 2.06201 9.00143 2.75101 9.00143H16.751C17.44 9.00143 18.001 8.44043 18.001 7.75143Z"/>
    </symbol>
    <symbol id="icon-account" viewBox="0 0 16 20" xmlns="http://www.w3.org/2000/svg">
        <path d="M7.74799 10.5C10.643 10.5 12.998 8.145 12.998 5.25C12.998 2.355 10.643 0 7.74799 0C4.85299 0 2.49799 2.355 2.49799 5.25C2.49799 8.145 4.85299 10.5 7.74799 10.5ZM7.74799 1.5C9.81599 1.5 11.498 3.182 11.498 5.25C11.498 7.318 9.81599 9 7.74799 9C5.67999 9 3.99799 7.318 3.99799 5.25C3.99799 3.182 5.67999 1.5 7.74799 1.5ZM15.498 15.717V16.728C15.498 17.663 15.157 18.559 14.537 19.25C14.389 19.416 14.184 19.5 13.978 19.5C13.8 19.5 13.621 19.437 13.478 19.309C13.169 19.033 13.144 18.559 13.42 18.25C13.793 17.833 13.999 17.293 13.999 16.729V15.718C13.999 14.204 12.995 12.894 11.556 12.533C11.303 12.469 11.031 12.504 10.81 12.629C8.909 13.687 6.58297 13.683 4.69397 12.632C4.46797 12.503 4.19599 12.466 3.94299 12.532C2.50399 12.894 1.49896 14.204 1.49896 15.718V16.729C1.49896 17.294 1.705 17.834 2.078 18.25C2.354 18.559 2.32796 19.033 2.01996 19.309C1.70996 19.586 1.236 19.559 0.960999 19.251C0.340999 18.559 0 17.663 0 16.729V15.718C0 13.516 1.47097 11.608 3.57697 11.078C4.19997 10.92 4.87697 11.01 5.43097 11.326C6.86097 12.122 8.63301 12.125 10.075 11.323C10.622 11.011 11.299 10.922 11.924 11.079C14.027 11.606 15.498 13.514 15.498 15.717Z"/>
    </symbol>
    <symbol id="icon-phone" viewBox="0 0 21 21" xmlns="http://www.w3.org/2000/svg">
        <path d="M20.9317 15.4544C20.9069 15.309 20.8768 15.182 20.8456 15.0689C20.6571 14.3958 20.0712 13.883 19.3528 13.7646L14.6871 12.9881C14 12.8728 13.3118 13.1388 12.8896 13.6795C12.8314 13.7538 12.7754 13.8292 12.7237 13.9056C12.6473 14.0176 12.4954 14.1222 12.3306 14.05C9.91055 12.9977 7.9999 11.0871 6.94872 8.667C6.87549 8.50006 6.97777 8.3536 7.08762 8.27929C7.18994 8.21036 7.28903 8.13609 7.38488 8.05854C7.9094 7.6342 8.17008 6.95566 8.06453 6.28683L7.34183 1.7041C7.23089 1.00189 6.7495 0.427795 6.08389 0.208083C5.92773 0.156386 5.74679 0.109048 5.53677 0.0713524C4.17326 -0.172054 2.77848 0.213478 1.70684 1.13325C0.5835 2.09826 -0.0390286 3.50061 0.00189831 4.97828C0.237767 13.7258 7.27288 20.762 16.0205 20.9979C16.0646 20.999 16.1088 21 16.153 21C17.5714 21 18.9123 20.386 19.8482 19.3026C20.7756 18.2288 21.1708 16.8254 20.9317 15.4544ZM18.6237 18.2471C17.9764 18.9956 17.035 19.3952 16.0625 19.3845C8.17435 19.1712 1.82852 12.8243 1.61527 4.93516C1.58942 3.94538 2.00516 3.00626 2.75908 2.35897C3.32883 1.87 4.00842 1.61365 4.7171 1.61365C4.89374 1.61365 5.07256 1.62975 5.25134 1.66098C5.37628 1.6836 5.48287 1.7106 5.57549 1.74184C5.66488 1.77092 5.73058 1.85382 5.74673 1.95614L6.46944 6.53886C6.48559 6.63902 6.44684 6.74028 6.37037 6.80167C6.30791 6.85229 6.24432 6.89964 6.17862 6.94379C5.38808 7.48123 5.09519 8.45485 5.46676 9.31108C6.68165 12.107 8.89061 14.316 11.6855 15.5309C12.5385 15.9014 13.5143 15.6096 14.0582 14.8158C14.0905 14.7695 14.1238 14.7232 14.1605 14.6758C14.2186 14.6015 14.3199 14.5659 14.4222 14.581L19.0879 15.3575C19.187 15.3747 19.2699 15.435 19.2903 15.505C19.3097 15.5718 19.3259 15.6462 19.341 15.7313C19.496 16.623 19.2344 17.5395 18.6237 18.2471Z"/>
    </symbol>
    <symbol id="icon-mail" viewBox="0 0 22 18" xmlns="http://www.w3.org/2000/svg">
        <path d="M16.641 0H5.35897C2.40421 0 0 2.47471 0 5.51613V12.4839C0 15.5253 2.40421 18 5.35897 18H16.641C19.5958 18 22 15.5253 22 12.4839V5.51613C22 2.47471 19.5958 0 16.641 0ZM5.35897 1.74194H16.641C18.1686 1.74194 19.4785 2.71038 20.029 4.07954L13.0341 8.88035C11.7987 9.72694 10.2012 9.72694 8.96697 8.88035L1.97209 4.07954C2.52152 2.70922 3.83138 1.74194 5.35897 1.74194ZM16.641 16.2581H5.35897C3.33723 16.2581 1.69231 14.5649 1.69231 12.4839V5.98181L8.02717 10.3297C8.92973 10.9487 9.96431 11.2586 11 11.2586C12.0346 11.2586 13.0691 10.9487 13.9728 10.3297L20.3077 5.98181V12.4839C20.3077 14.5649 18.6628 16.2581 16.641 16.2581Z"/>
    </symbol>
</svg>