<svg xmlns="http://www.w3.org/2000/svg">
  <symbol id="icon-search" viewBox="0 0 20 20" xmlns="http://www.w3.org/2000/svg">
      <path d="M19.28 18.219L14.586 13.525C15.78 12.094 16.5 10.255 16.5 8.25C16.5 3.701 12.799 0 8.25 0C3.701 0 0 3.701 0 8.25C0 12.799 3.701 16.5 8.25 16.5C10.255 16.5 12.094 15.7801 13.525 14.5861L18.219 19.28C18.365 19.426 18.557 19.5 18.749 19.5C18.941 19.5 19.133 19.427 19.279 19.28C19.573 18.987 19.573 18.512 19.28 18.219ZM1.5 8.25C1.5 4.528 4.528 1.5 8.25 1.5C11.972 1.5 15 4.528 15 8.25C15 11.972 11.972 15 8.25 15C4.528 15 1.5 11.972 1.5 8.25Z" fill="#253B6E"/>
  </symbol>
  <symbol id="icon-favourite" viewBox="0 0 20 20" xmlns="http://www.w3.org/2000/svg">
    <path d="M18.9344 8.63037L15.8204 11.6226L16.5554 15.8435C16.6754 16.5325 16.3974 17.2195 15.8294 17.6355C15.2504 18.0585 14.4944 18.1166 13.8564 17.7876L10.0004 15.7905L6.14445 17.7876C5.87045 17.9296 5.57345 17.9995 5.27845 17.9995C4.88845 17.9995 4.50142 17.8765 4.17142 17.6355C3.60442 17.2195 3.32544 16.5325 3.44544 15.8435L4.18043 11.6226L1.06644 8.63037C0.556443 8.14037 0.373422 7.41951 0.589422 6.74951C0.807422 6.07151 1.38542 5.58857 2.09742 5.48657L6.40644 4.86938L8.33243 1.02441C8.64843 0.392414 9.28843 0.000488281 10.0004 0.000488281C10.7124 0.000488281 11.3524 0.393414 11.6684 1.02441L13.5944 4.86938L17.9034 5.48657C18.6144 5.58857 19.1924 6.07151 19.4104 6.74951C19.6264 7.41951 19.4444 8.14037 18.9344 8.63037Z" stroke-width="1.5" stroke-linejoin="round"/>
  </symbol>
  <symbol id="icon-cart" viewBox="0 0 20 20" xmlns="http://www.w3.org/2000/svg">
      <path d="M8.50101 12.7514V15.7514C8.50101 16.1654 8.16501 16.5014 7.75101 16.5014C7.33701 16.5014 7.00101 16.1654 7.00101 15.7514V12.7514C7.00101 12.3374 7.33701 12.0014 7.75101 12.0014C8.16501 12.0014 8.50101 12.3374 8.50101 12.7514ZM11.751 12.0014C11.337 12.0014 11.001 12.3374 11.001 12.7514V15.7514C11.001 16.1654 11.337 16.5014 11.751 16.5014C12.165 16.5014 12.501 16.1654 12.501 15.7514V12.7514C12.501 12.3374 12.165 12.0014 11.751 12.0014ZM17.948 10.2154L17.181 16.2254C16.943 18.0924 15.344 19.5005 13.461 19.5005H6.06302C4.18702 19.5005 2.588 18.0974 2.345 16.2374L1.55499 10.2154C0.637993 9.76842 0 8.83646 0 7.75046C0 6.23346 1.233 5.00046 2.75 5.00046H4.32602L7.10699 0.364471C7.31999 0.0094713 7.78102 -0.106609 8.13602 0.107391C8.49102 0.320391 8.60701 0.781444 8.39301 1.13644L6.07401 5.00046H13.425L11.106 1.13644C10.893 0.781444 11.008 0.320391 11.363 0.107391C11.717 -0.105609 12.178 0.0094713 12.392 0.364471L15.173 5.00046H16.751C18.268 5.00046 19.501 6.23346 19.501 7.75046C19.501 8.83646 18.864 9.76842 17.948 10.2154ZM16.399 10.5014H3.10602L3.83301 16.0434C3.97901 17.1594 4.93802 18.0014 6.06302 18.0014H13.461C14.59 18.0014 15.55 17.1565 15.692 16.0365L16.399 10.5014ZM18.001 7.75143C18.001 7.06243 17.44 6.50143 16.751 6.50143H2.75101C2.06201 6.50143 1.50101 7.06243 1.50101 7.75143C1.50101 8.44043 2.06201 9.00143 2.75101 9.00143H16.751C17.44 9.00143 18.001 8.44043 18.001 7.75143Z"/>
  </symbol>
  <symbol id="icon-account" viewBox="0 0 16 20" xmlns="http://www.w3.org/2000/svg">
      <path d="M7.74799 10.5C10.643 10.5 12.998 8.145 12.998 5.25C12.998 2.355 10.643 0 7.74799 0C4.85299 0 2.49799 2.355 2.49799 5.25C2.49799 8.145 4.85299 10.5 7.74799 10.5ZM7.74799 1.5C9.81599 1.5 11.498 3.182 11.498 5.25C11.498 7.318 9.81599 9 7.74799 9C5.67999 9 3.99799 7.318 3.99799 5.25C3.99799 3.182 5.67999 1.5 7.74799 1.5ZM15.498 15.717V16.728C15.498 17.663 15.157 18.559 14.537 19.25C14.389 19.416 14.184 19.5 13.978 19.5C13.8 19.5 13.621 19.437 13.478 19.309C13.169 19.033 13.144 18.559 13.42 18.25C13.793 17.833 13.999 17.293 13.999 16.729V15.718C13.999 14.204 12.995 12.894 11.556 12.533C11.303 12.469 11.031 12.504 10.81 12.629C8.909 13.687 6.58297 13.683 4.69397 12.632C4.46797 12.503 4.19599 12.466 3.94299 12.532C2.50399 12.894 1.49896 14.204 1.49896 15.718V16.729C1.49896 17.294 1.705 17.834 2.078 18.25C2.354 18.559 2.32796 19.033 2.01996 19.309C1.70996 19.586 1.236 19.559 0.960999 19.251C0.340999 18.559 0 17.663 0 16.729V15.718C0 13.516 1.47097 11.608 3.57697 11.078C4.19997 10.92 4.87697 11.01 5.43097 11.326C6.86097 12.122 8.63301 12.125 10.075 11.323C10.622 11.011 11.299 10.922 11.924 11.079C14.027 11.606 15.498 13.514 15.498 15.717Z"/>
  </symbol>
  <symbol id="icon-phone" viewBox="0 0 21 21" xmlns="http://www.w3.org/2000/svg">
      <path d="M20.9317 15.4544C20.9069 15.309 20.8768 15.182 20.8456 15.0689C20.6571 14.3958 20.0712 13.883 19.3528 13.7646L14.6871 12.9881C14 12.8728 13.3118 13.1388 12.8896 13.6795C12.8314 13.7538 12.7754 13.8292 12.7237 13.9056C12.6473 14.0176 12.4954 14.1222 12.3306 14.05C9.91055 12.9977 7.9999 11.0871 6.94872 8.667C6.87549 8.50006 6.97777 8.3536 7.08762 8.27929C7.18994 8.21036 7.28903 8.13609 7.38488 8.05854C7.9094 7.6342 8.17008 6.95566 8.06453 6.28683L7.34183 1.7041C7.23089 1.00189 6.7495 0.427795 6.08389 0.208083C5.92773 0.156386 5.74679 0.109048 5.53677 0.0713524C4.17326 -0.172054 2.77848 0.213478 1.70684 1.13325C0.5835 2.09826 -0.0390286 3.50061 0.00189831 4.97828C0.237767 13.7258 7.27288 20.762 16.0205 20.9979C16.0646 20.999 16.1088 21 16.153 21C17.5714 21 18.9123 20.386 19.8482 19.3026C20.7756 18.2288 21.1708 16.8254 20.9317 15.4544ZM18.6237 18.2471C17.9764 18.9956 17.035 19.3952 16.0625 19.3845C8.17435 19.1712 1.82852 12.8243 1.61527 4.93516C1.58942 3.94538 2.00516 3.00626 2.75908 2.35897C3.32883 1.87 4.00842 1.61365 4.7171 1.61365C4.89374 1.61365 5.07256 1.62975 5.25134 1.66098C5.37628 1.6836 5.48287 1.7106 5.57549 1.74184C5.66488 1.77092 5.73058 1.85382 5.74673 1.95614L6.46944 6.53886C6.48559 6.63902 6.44684 6.74028 6.37037 6.80167C6.30791 6.85229 6.24432 6.89964 6.17862 6.94379C5.38808 7.48123 5.09519 8.45485 5.46676 9.31108C6.68165 12.107 8.89061 14.316 11.6855 15.5309C12.5385 15.9014 13.5143 15.6096 14.0582 14.8158C14.0905 14.7695 14.1238 14.7232 14.1605 14.6758C14.2186 14.6015 14.3199 14.5659 14.4222 14.581L19.0879 15.3575C19.187 15.3747 19.2699 15.435 19.2903 15.505C19.3097 15.5718 19.3259 15.6462 19.341 15.7313C19.496 16.623 19.2344 17.5395 18.6237 18.2471Z"/>
  </symbol>
  <symbol id="icon-mail" viewBox="0 0 22 18" xmlns="http://www.w3.org/2000/svg">
      <path d="M16.641 0H5.35897C2.40421 0 0 2.47471 0 5.51613V12.4839C0 15.5253 2.40421 18 5.35897 18H16.641C19.5958 18 22 15.5253 22 12.4839V5.51613C22 2.47471 19.5958 0 16.641 0ZM5.35897 1.74194H16.641C18.1686 1.74194 19.4785 2.71038 20.029 4.07954L13.0341 8.88035C11.7987 9.72694 10.2012 9.72694 8.96697 8.88035L1.97209 4.07954C2.52152 2.70922 3.83138 1.74194 5.35897 1.74194ZM16.641 16.2581H5.35897C3.33723 16.2581 1.69231 14.5649 1.69231 12.4839V5.98181L8.02717 10.3297C8.92973 10.9487 9.96431 11.2586 11 11.2586C12.0346 11.2586 13.0691 10.9487 13.9728 10.3297L20.3077 5.98181V12.4839C20.3077 14.5649 18.6628 16.2581 16.641 16.2581Z"/>
  </symbol>
  <symbol id="icon-arrow" viewBox="0 0 12 8" fill="none" xmlns="http://www.w3.org/2000/svg">
    <path d="M1 1.5L6 6.5L11 1.5" stroke="#253B6E" stroke-width="2" stroke-linecap="round" stroke-linejoin="round"/>
  </symbol>
  <symbol id="icon-discount" viewBox="0 0 25 24" fill="none" xmlns="http://www.w3.org/2000/svg">
    <path d="M23.7552 9.16217L23.0439 8.44948C22.7527 8.15775 22.5918 7.76876 22.5918 7.35393V6.35199C22.5918 4.13876 20.7955 2.33912 18.5865 2.33912H17.5852C17.1724 2.33912 16.7841 2.17796 16.4917 1.88623L15.7804 1.17339C14.2188 -0.391131 11.678 -0.391131 10.1164 1.17339L9.40507 1.88623C9.11388 2.17796 8.72563 2.33912 8.31158 2.33912H7.31154C5.10249 2.33912 3.30625 4.13876 3.30625 6.35199V7.35393C3.30625 7.76753 3.14533 8.15652 2.85415 8.44948L2.14273 9.16217C0.581166 10.7267 0.581166 13.2724 2.14273 14.8369L2.85415 15.5496C3.14533 15.8414 3.30625 16.2303 3.30625 16.6452V17.6471C3.30625 19.8603 5.10249 21.66 7.31154 21.66H8.31158C8.7244 21.66 9.11266 21.8211 9.40507 22.1129L10.1164 22.8257C10.8978 23.6086 11.9225 24 12.9484 24C13.9743 24 14.999 23.6086 15.7804 22.8257L16.4917 22.1129C16.7829 21.8211 17.1711 21.66 17.5852 21.66H18.5865C20.7943 21.66 22.5918 19.8603 22.5918 17.6471V16.6452C22.5918 16.2316 22.7527 15.8426 23.0439 15.5496L23.7552 14.8369C25.3168 13.2724 25.3168 10.7267 23.7552 9.16217ZM22.4517 13.5309L21.7404 14.2435C21.1003 14.8849 20.7476 15.7366 20.7476 16.6438V17.6459C20.7476 18.8412 19.777 19.8124 18.5852 19.8124H17.5839C16.6784 19.8124 15.8271 20.1656 15.1882 20.807L14.4768 21.5196C13.6327 22.3653 12.2616 22.3653 11.4188 21.5196L10.7074 20.807C10.0673 20.1656 9.21707 19.8124 8.31158 19.8124H7.31154C6.11856 19.8124 5.14917 18.8399 5.14917 17.6459V16.6438C5.14917 15.7366 4.79658 14.8836 4.15647 14.2435L3.44506 13.5309C2.60223 12.6852 2.60223 11.3115 3.44506 10.467L4.15647 9.75435C4.79658 9.11303 5.14917 8.26113 5.14917 7.35393V6.35199C5.14917 5.15675 6.11978 4.18553 7.31154 4.18553H8.31158C9.21707 4.18553 10.0685 3.83227 10.7074 3.19095L11.4188 2.47826C12.2629 1.6326 13.6339 1.6326 14.4768 2.47826L15.1882 3.19095C15.8283 3.83227 16.6784 4.18553 17.5839 4.18553H18.5852C19.777 4.18553 20.7476 5.15798 20.7476 6.35199V7.35393C20.7476 8.26113 21.1003 9.11426 21.7404 9.75435L22.4517 10.467C23.2945 11.3127 23.2945 12.6864 22.4517 13.5309ZM17.2867 7.6531C17.6466 8.01376 17.6466 8.5985 17.2867 8.95917L9.91499 16.3448C9.73561 16.5245 9.49968 16.6156 9.26379 16.6156C9.02789 16.6156 8.79197 16.5257 8.61259 16.3448C8.2526 15.9841 8.2526 15.3994 8.61259 15.0387L15.9843 7.6531C16.3442 7.29367 16.9267 7.29367 17.2867 7.6531ZM17.2498 15.0769C17.2498 15.7564 16.6993 16.3078 16.0212 16.3078C15.343 16.3078 14.7925 15.7564 14.7925 15.0769C14.7925 14.3974 15.343 13.846 16.0212 13.846C16.6993 13.846 17.2498 14.3974 17.2498 15.0769ZM8.64948 8.9222C8.64948 8.24273 9.1999 7.69127 9.87809 7.69127C10.5563 7.69127 11.1067 8.24273 11.1067 8.9222C11.1067 9.60168 10.5563 10.1531 9.87809 10.1531C9.1999 10.1531 8.64948 9.60168 8.64948 8.9222Z" fill="#253B6E"/>
  </symbol>
  <symbol id="icon-card" viewBox="0 0 20 16" xmlns="http://www.w3.org/2000/svg">
    <path d="M14.75 0H4.75C2.131 0 0 2.131 0 4.75V10.75C0 13.369 2.131 15.5 4.75 15.5H14.75C17.369 15.5 19.5 13.369 19.5 10.75V4.75C19.5 2.131 17.369 0 14.75 0ZM4.75 1.5H14.75C16.542 1.5 18 2.958 18 4.75V5H1.5V4.75C1.5 2.958 2.958 1.5 4.75 1.5ZM14.75 14H4.75C2.958 14 1.5 12.542 1.5 10.75V6.5H18V10.75C18 12.542 16.542 14 14.75 14ZM8.5 10.75C8.5 11.164 8.164 11.5 7.75 11.5H4.75C4.336 11.5 4 11.164 4 10.75C4 10.336 4.336 10 4.75 10H7.75C8.164 10 8.5 10.336 8.5 10.75Z"/>
  </symbol>
  <symbol id="icon-geo" viewBox="0 0 16 20" fill="none" xmlns="http://www.w3.org/2000/svg">
    <path d="M7 10.424V14.75C7 15.164 7.336 15.5 7.75 15.5C8.164 15.5 8.5 15.164 8.5 14.75V10.424C11.038 10.056 13 7.888 13 5.25C13 2.355 10.645 0 7.75 0C4.855 0 2.5 2.355 2.5 5.25C2.5 7.888 4.462 10.056 7 10.424ZM7.75 1.5C9.818 1.5 11.5 3.182 11.5 5.25C11.5 7.318 9.818 9 7.75 9C5.682 9 4 7.318 4 5.25C4 3.182 5.682 1.5 7.75 1.5ZM15.5 15.75C15.5 17.888 12.168 19.5 7.75 19.5C3.332 19.5 0 17.888 0 15.75C0 14.176 1.72001 12.8881 4.60101 12.3051C5.01001 12.2251 5.40299 12.485 5.48499 12.891C5.56799 13.297 5.30499 13.693 4.89899 13.775C2.66799 14.227 1.5 15.111 1.5 15.75C1.5 16.667 3.935 18 7.75 18C11.565 18 14 16.667 14 15.75C14 15.111 12.833 14.227 10.601 13.775C10.195 13.693 9.93301 13.297 10.015 12.891C10.097 12.485 10.494 12.2251 10.899 12.3051C13.78 12.8881 15.5 14.176 15.5 15.75Z" fill="#41416E"/>
  </symbol>
  <symbol id="icon-sort" viewBox="0 0 20 20" fill="none" xmlns="http://www.w3.org/2000/svg">
    <path d="M9.75 0C4.374 0 0 4.374 0 9.75C0 15.126 4.374 19.5 9.75 19.5C15.126 19.5 19.5 15.126 19.5 9.75C19.5 4.374 15.126 0 9.75 0ZM9.75 18C5.201 18 1.5 14.299 1.5 9.75C1.5 5.201 5.201 1.5 9.75 1.5C14.299 1.5 18 5.201 18 9.75C18 14.299 14.299 18 9.75 18ZM14.5 13.75C14.5 14.164 14.164 14.5 13.75 14.5H5.75C5.336 14.5 5 14.164 5 13.75C5 13.336 5.336 13 5.75 13H13.75C14.164 13 14.5 13.336 14.5 13.75ZM6.5 9.75C6.5 9.336 6.836 9 7.25 9H12.25C12.664 9 13 9.336 13 9.75C13 10.164 12.664 10.5 12.25 10.5H7.25C6.836 10.5 6.5 10.164 6.5 9.75ZM8 5.75C8 5.336 8.336 5 8.75 5H10.75C11.164 5 11.5 5.336 11.5 5.75C11.5 6.164 11.164 6.5 10.75 6.5H8.75C8.336 6.5 8 6.164 8 5.75Z" fill="#253B6E"/>
  </symbol>
  <symbol id="icon-minus" viewBox="0 0 20 20" fill="none" xmlns="http://www.w3.org/2000/svg">
    <path d="M13 0.25H7C3.278 0.25 0.25 3.278 0.25 7V13C0.25 16.722 3.278 19.75 7 19.75H13C16.722 19.75 19.75 16.722 19.75 13V7C19.75 3.278 16.722 0.25 13 0.25ZM18.25 13C18.25 15.895 15.895 18.25 13 18.25H7C4.105 18.25 1.75 15.895 1.75 13V7C1.75 4.105 4.105 1.75 7 1.75H13C15.895 1.75 18.25 4.105 18.25 7V13ZM14.75 10C14.75 10.414 14.414 10.75 14 10.75H6C5.586 10.75 5.25 10.414 5.25 10C5.25 9.586 5.586 9.25 6 9.25H14C14.414 9.25 14.75 9.586 14.75 10Z" fill="#41416E"/>
  </symbol>
  <symbol id="icon-plus" viewBox="0 0 20 20" fill="none" xmlns="http://www.w3.org/2000/svg">
    <path d="M13 0.25H7C3.278 0.25 0.25 3.278 0.25 7V13C0.25 16.722 3.278 19.75 7 19.75H13C16.722 19.75 19.75 16.722 19.75 13V7C19.75 3.278 16.722 0.25 13 0.25ZM18.25 13C18.25 15.895 15.895 18.25 13 18.25H7C4.105 18.25 1.75 15.895 1.75 13V7C1.75 4.105 4.105 1.75 7 1.75H13C15.895 1.75 18.25 4.105 18.25 7V13ZM14.75 10C14.75 10.414 14.414 10.75 14 10.75H10.75V14C10.75 14.414 10.414 14.75 10 14.75C9.586 14.75 9.25 14.414 9.25 14V10.75H6C5.586 10.75 5.25 10.414 5.25 10C5.25 9.586 5.586 9.25 6 9.25H9.25V6C9.25 5.586 9.586 5.25 10 5.25C10.414 5.25 10.75 5.586 10.75 6V9.25H14C14.414 9.25 14.75 9.586 14.75 10Z" fill="#41416E"/>
  </symbol>
  <symbol id="icon-close" viewBox="0 0 20 20" fill="none" xmlns="http://www.w3.org/2000/svg">
    <path d="M13.53 7.53003L11.06 10L13.53 12.47C13.823 12.763 13.823 13.238 13.53 13.531C13.384 13.677 13.192 13.751 13 13.751C12.808 13.751 12.616 13.678 12.47 13.531L10 11.061L7.53003 13.531C7.38403 13.677 7.192 13.751 7 13.751C6.808 13.751 6.61597 13.678 6.46997 13.531C6.17697 13.238 6.17697 12.763 6.46997 12.47L8.94 10L6.46997 7.53003C6.17697 7.23703 6.17697 6.76199 6.46997 6.46899C6.76297 6.17599 7.23801 6.17599 7.53101 6.46899L10.001 8.93903L12.471 6.46899C12.764 6.17599 13.239 6.17599 13.532 6.46899C13.825 6.76199 13.823 7.23703 13.53 7.53003ZM19.75 7V13C19.75 16.722 16.722 19.75 13 19.75H7C3.278 19.75 0.25 16.722 0.25 13V7C0.25 3.278 3.278 0.25 7 0.25H13C16.722 0.25 19.75 3.278 19.75 7ZM18.25 7C18.25 4.105 15.895 1.75 13 1.75H7C4.105 1.75 1.75 4.105 1.75 7V13C1.75 15.895 4.105 18.25 7 18.25H13C15.895 18.25 18.25 15.895 18.25 13V7Z" fill="#41416E"/>
  </symbol>
  <symbol id="icon-history" viewBox="0 0 20 20" xmlns="http://www.w3.org/2000/svg">
    <path d="M16.566 2.45885L12.168 0.50475C10.653 -0.16825 8.84697 -0.16825 7.33197 0.50475L2.93402 2.45885C1.12402 3.26285 0 4.89677 0 6.72277V12.7728C0 14.5988 1.12402 16.2317 2.93402 17.0367L7.33301 18.9908C8.08301 19.3238 8.90499 19.4908 9.72699 19.4938C9.73499 19.4938 9.742 19.4988 9.75 19.4988C9.758 19.4988 9.76501 19.4948 9.77301 19.4938C10.595 19.4908 11.417 19.3238 12.167 18.9908L16.566 17.0367C18.376 16.2327 19.5 14.5988 19.5 12.7728V6.72277C19.5 4.89677 18.376 3.26285 16.566 2.45885ZM7.94098 1.87682C8.50798 1.62482 9.129 1.49975 9.75 1.49975C10.371 1.49975 10.993 1.62482 11.559 1.87682L15.957 3.8308C16.253 3.9618 16.519 4.12576 16.758 4.31176L14.248 5.42785L7.09698 2.25084L7.94098 1.87682ZM3.54199 3.82982L5.24902 3.07177L12.4 6.24877L10.951 6.89281C10.229 7.21281 9.26702 7.21381 8.54602 6.89281L2.73999 4.31176C2.98099 4.12476 3.24699 3.96182 3.54199 3.82982ZM3.54303 15.6648C2.28303 15.1048 1.5 13.9968 1.5 12.7718V6.72179C1.5 6.30079 1.598 5.89674 1.771 5.52074L7.93799 8.26183C8.26899 8.40883 8.63 8.49978 9 8.56078V17.9188C8.636 17.8578 8.27902 17.7678 7.94202 17.6178L3.54303 15.6648ZM18 12.7728C18 13.9968 17.217 15.1058 15.957 15.6658L11.558 17.6197C11.222 17.7687 10.864 17.8598 10.5 17.9198V8.56176C10.87 8.50076 11.231 8.41078 11.562 8.26378L17.729 5.52282C17.901 5.89882 18 6.30274 18 6.72374V12.7728Z"/>
  </symbol>
  <symbol id="icon-settings" viewBox="0 0 20 20" xmlns="http://www.w3.org/2000/svg">
    <path d="M9.75 13.5C9.00832 13.5 8.2833 13.2801 7.66661 12.868C7.04993 12.456 6.56928 11.8703 6.28545 11.1851C6.00162 10.4998 5.92736 9.74584 6.07205 9.01841C6.21675 8.29098 6.5739 7.6228 7.09835 7.09835C7.6228 6.5739 8.29098 6.21675 9.01841 6.07205C9.74584 5.92736 10.4998 6.00162 11.1851 6.28545C11.8703 6.56928 12.456 7.04993 12.868 7.66661C13.2801 8.2833 13.5 9.00832 13.5 9.75C13.4989 10.7442 13.1035 11.6974 12.4005 12.4005C11.6974 13.1035 10.7442 13.4989 9.75 13.5ZM9.75 7.5C9.30499 7.5 8.86998 7.63196 8.49997 7.87919C8.12996 8.12643 7.84157 8.47783 7.67127 8.88896C7.50097 9.3001 7.45642 9.7525 7.54323 10.189C7.63005 10.6254 7.84434 11.0263 8.15901 11.341C8.47368 11.6557 8.87459 11.87 9.31105 11.9568C9.7475 12.0436 10.1999 11.999 10.611 11.8287C11.0222 11.6584 11.3736 11.37 11.6208 11C11.868 10.63 12 10.195 12 9.75C11.9995 9.15343 11.7622 8.58144 11.3404 8.15959C10.9186 7.73775 10.3466 7.50053 9.75 7.5ZM10.25 19.5H9.25C8.65343 19.4995 8.08144 19.2622 7.65959 18.8404C7.23775 18.4186 7.00053 17.8466 7 17.25C7.00126 17.1779 6.981 17.107 6.94182 17.0465C6.90264 16.9859 6.8463 16.9384 6.78 16.91H6.772C6.71161 16.885 6.64515 16.8785 6.58106 16.8913C6.51697 16.9041 6.45813 16.9357 6.412 16.982C5.98683 17.4024 5.41416 17.6399 4.81627 17.6438C4.21839 17.6477 3.64265 17.4178 3.212 17.003L2.512 16.297C2.30243 16.0879 2.13617 15.8395 2.02273 15.5661C1.90929 15.2927 1.85089 14.9995 1.85089 14.7035C1.85089 14.4075 1.90929 14.1143 2.02273 13.8409C2.13617 13.5675 2.30243 13.3191 2.512 13.11C2.56163 13.0591 2.59534 12.9948 2.60902 12.925C2.62269 12.8552 2.61574 12.7829 2.589 12.717C2.56457 12.6547 2.52214 12.601 2.46711 12.5629C2.41207 12.5248 2.34694 12.5039 2.28 12.503C1.98205 12.5059 1.68647 12.4498 1.4103 12.3379C1.13413 12.2261 0.88283 12.0607 0.670886 11.8512C0.458942 11.6418 0.290545 11.3925 0.175401 11.1177C0.0602581 10.8429 0.000645648 10.548 0 10.25V9.25C0.000529583 8.65343 0.237752 8.08144 0.659595 7.65959C1.08144 7.23775 1.65343 7.00053 2.25 7C2.32203 7.00146 2.39285 6.98128 2.45328 6.94206C2.51372 6.90284 2.561 6.84638 2.589 6.78V6.772C2.61373 6.71156 2.62009 6.64518 2.60729 6.58114C2.59448 6.51711 2.56308 6.45827 2.517 6.412C2.30398 6.20414 2.13431 5.95608 2.01783 5.68219C1.90135 5.40829 1.84036 5.11401 1.83841 4.81638C1.83646 4.51876 1.89357 4.2237 2.00645 3.9483C2.11933 3.67291 2.28572 3.42264 2.496 3.212L3.205 2.503C3.63315 2.09288 4.20312 1.86394 4.796 1.86394C5.38888 1.86394 5.95886 2.09288 6.387 2.503C6.43753 2.55554 6.5026 2.59179 6.57386 2.60711C6.64513 2.62243 6.71934 2.61613 6.787 2.589C6.84903 2.56466 6.90236 2.52233 6.94014 2.46745C6.97792 2.41256 6.99842 2.34763 6.999 2.281C6.99596 1.98313 7.0519 1.68761 7.16357 1.41145C7.27525 1.1353 7.44047 0.88397 7.6497 0.671946C7.85894 0.459922 8.10806 0.291394 8.38271 0.176071C8.65736 0.0607473 8.95212 0.000907992 9.25 0H10.25C10.8466 0.000529583 11.4186 0.237752 11.8404 0.659595C12.2622 1.08144 12.4995 1.65343 12.5 2.25C12.4964 2.32038 12.5147 2.39014 12.5523 2.44975C12.5899 2.50935 12.645 2.55589 12.71 2.583C12.7732 2.60994 12.8428 2.61833 12.9107 2.60717C12.9785 2.59601 13.0417 2.56578 13.093 2.52C13.3019 2.30592 13.5515 2.13581 13.8271 2.01971C14.1028 1.90361 14.3989 1.84387 14.698 1.844C14.9936 1.84318 15.2864 1.901 15.5595 2.01411C15.8326 2.12723 16.0806 2.2934 16.289 2.503L16.995 3.203C17.2039 3.41193 17.3697 3.65997 17.4827 3.93296C17.5958 4.20594 17.654 4.49852 17.654 4.794C17.654 5.08948 17.5958 5.38206 17.4827 5.65504C17.3697 5.92803 17.2039 6.17607 16.995 6.385C16.9419 6.43192 16.9047 6.49412 16.8884 6.56306C16.8721 6.632 16.8776 6.70429 16.904 6.77L16.91 6.784C16.9344 6.84565 16.9766 6.8986 17.0313 6.93603C17.086 6.97346 17.1507 6.99365 17.217 6.994C17.5155 6.9907 17.8116 7.04659 18.0883 7.15846C18.365 7.27033 18.6168 7.43595 18.8291 7.64575C19.0414 7.85554 19.21 8.10534 19.3252 8.3807C19.4403 8.65607 19.4998 8.95153 19.5 9.25V10.25C19.4995 10.8466 19.2622 11.4186 18.8404 11.8404C18.4186 12.2622 17.8466 12.4995 17.25 12.5C17.1796 12.4964 17.1099 12.5147 17.0503 12.5523C16.9906 12.5899 16.9441 12.645 16.917 12.71C16.8904 12.7733 16.8822 12.8428 16.8934 12.9106C16.9045 12.9783 16.9345 13.0415 16.98 13.093C17.1928 13.3011 17.3621 13.5494 17.4783 13.8234C17.5944 14.0975 17.655 14.3918 17.6566 14.6895C17.6582 14.9871 17.6007 15.2821 17.4875 15.5573C17.3742 15.8326 17.2075 16.0826 16.997 16.293L16.297 16.999C15.8689 17.4091 15.2989 17.6381 14.706 17.6381C14.1131 17.6381 13.5431 17.4091 13.115 16.999C13.068 16.9461 13.0058 16.9089 12.9369 16.8926C12.868 16.8763 12.7957 16.8817 12.73 16.908C12.6664 16.9329 12.6113 16.9757 12.5716 17.0313C12.5318 17.0868 12.509 17.1527 12.506 17.221C12.5088 17.5191 12.4525 17.8148 12.3404 18.0911C12.2283 18.3673 12.0626 18.6187 11.8528 18.8305C11.6431 19.0424 11.3935 19.2107 11.1184 19.3256C10.8433 19.4405 10.5481 19.4997 10.25 19.5ZM7.441 15.568C7.75375 15.7181 8.01851 15.9523 8.20556 16.2445C8.39261 16.5366 8.49457 16.8751 8.5 17.222C8.4972 17.3226 8.51449 17.4227 8.55084 17.5165C8.58719 17.6103 8.64188 17.696 8.71171 17.7684C8.78154 17.8408 8.86511 17.8986 8.95754 17.9384C9.04996 17.9782 9.14939 17.9991 9.25 18H10.25C10.4489 18 10.6397 17.921 10.7803 17.7803C10.921 17.6397 11 17.4489 11 17.25C10.9995 16.8804 11.1085 16.519 11.3131 16.2113C11.5178 15.9036 11.809 15.6634 12.15 15.521C12.4844 15.3824 12.8525 15.3464 13.2074 15.4176C13.5623 15.4889 13.888 15.6641 14.143 15.921C14.2119 15.9947 14.2949 16.0537 14.3871 16.0948C14.4793 16.1358 14.5787 16.158 14.6796 16.1599C14.7804 16.1619 14.8807 16.1436 14.9743 16.1062C15.068 16.0687 15.1533 16.0129 15.225 15.942L15.931 15.242C16.0719 15.101 16.151 14.9098 16.151 14.7105C16.151 14.5112 16.0719 14.32 15.931 14.179C15.6742 13.9204 15.4983 13.5926 15.4249 13.2356C15.3516 12.8785 15.3839 12.5079 15.518 12.169V12.155L15.525 12.138C15.6625 11.8028 15.8968 11.5162 16.198 11.3149C16.4993 11.1136 16.8537 11.0068 17.216 11.008C17.3164 11.0107 17.4164 10.9933 17.5101 10.9568C17.6037 10.9204 17.6892 10.8657 17.7614 10.7959C17.8337 10.726 17.8913 10.6425 17.9309 10.5502C17.9705 10.4578 17.9912 10.3585 17.992 10.258V9.258C17.992 9.05909 17.913 8.86832 17.7723 8.72767C17.6317 8.58702 17.4409 8.508 17.242 8.508C16.8755 8.51254 16.5159 8.40738 16.2096 8.20602C15.9033 8.00465 15.6642 7.7163 15.523 7.378C15.3777 7.03936 15.3377 6.66485 15.4082 6.30316C15.4786 5.94148 15.6563 5.60936 15.918 5.35C15.9934 5.27905 16.0536 5.19356 16.095 5.09868C16.1365 5.00381 16.1582 4.90152 16.159 4.798C16.1593 4.69948 16.14 4.60189 16.1022 4.5109C16.0645 4.41992 16.009 4.33735 15.939 4.268L15.239 3.562C15.1692 3.4924 15.0864 3.43723 14.9953 3.39965C14.9042 3.36207 14.8066 3.34282 14.708 3.343C14.6092 3.34253 14.5113 3.36185 14.4202 3.3998C14.329 3.43776 14.2463 3.49359 14.177 3.564C13.9181 3.8204 13.5903 3.99596 13.2334 4.06929C12.8765 4.14262 12.506 4.11056 12.167 3.977L12.15 3.974L12.133 3.967C11.7978 3.82952 11.5112 3.59518 11.3099 3.29395C11.1086 2.99272 11.0018 2.6383 11.003 2.276C11.0057 2.17555 10.9883 2.07558 10.9518 1.98194C10.9154 1.88829 10.8607 1.80284 10.7909 1.73059C10.721 1.65834 10.6375 1.60073 10.5452 1.56114C10.4528 1.52155 10.3535 1.50076 10.253 1.5H9.253C9.05409 1.5 8.86332 1.57902 8.72267 1.71967C8.58202 1.86032 8.503 2.05109 8.503 2.25C8.50734 2.61911 8.40043 2.98098 8.19621 3.28847C7.99198 3.59597 7.6999 3.83485 7.358 3.974C7.0216 4.11196 6.65215 4.14835 6.2953 4.07869C5.93845 4.00902 5.60981 3.83635 5.35 3.582C5.28095 3.50889 5.19802 3.45028 5.10606 3.40958C5.0141 3.36888 4.91495 3.34691 4.8144 3.34496C4.71386 3.343 4.61393 3.3611 4.52046 3.39819C4.42699 3.43529 4.34184 3.49063 4.27 3.561L3.561 4.27C3.49131 4.33965 3.43602 4.42235 3.3983 4.51338C3.36058 4.6044 3.34116 4.70197 3.34116 4.8005C3.34116 4.89903 3.36058 4.9966 3.3983 5.08762C3.43602 5.17865 3.49131 5.26135 3.561 5.331C3.82455 5.58717 4.00525 5.91647 4.07976 6.27637C4.15427 6.63627 4.11918 7.01025 3.979 7.35C3.96532 7.38423 3.94963 7.41763 3.932 7.45C3.78065 7.76107 3.54585 8.02397 3.25379 8.20938C2.96173 8.39478 2.62391 8.4954 2.278 8.5C2.17742 8.4972 2.0773 8.51449 1.98348 8.55084C1.88966 8.58719 1.80403 8.64188 1.73159 8.71171C1.65915 8.78154 1.60136 8.86511 1.5616 8.95754C1.52183 9.04996 1.50089 9.14939 1.5 9.25V10.25C1.5 10.4489 1.57902 10.6397 1.71967 10.7803C1.86032 10.921 2.05109 11 2.25 11C2.61698 10.9953 2.97692 11.1009 3.28322 11.3031C3.58952 11.5052 3.82807 11.7947 3.968 12.134L3.974 12.147L3.979 12.161C4.1131 12.4973 4.14668 12.8653 4.07567 13.2203C4.00467 13.5754 3.83213 13.9021 3.579 14.161C3.50524 14.2309 3.44646 14.3151 3.40623 14.4085C3.36601 14.5018 3.34517 14.6024 3.345 14.704C3.34425 14.8028 3.36323 14.9007 3.40084 14.9921C3.43845 15.0834 3.49392 15.1664 3.564 15.236L4.27 15.936C4.41289 16.0725 4.60289 16.1487 4.8005 16.1487C4.99811 16.1487 5.18811 16.0725 5.331 15.936C5.58758 15.6731 5.91704 15.493 6.27689 15.4191C6.63675 15.3451 7.01051 15.3806 7.35 15.521C7.38117 15.535 7.41155 15.5507 7.441 15.568Z"/>
  </symbol>
  <symbol id="icon-orders" viewBox="0 0 20 18" xmlns="http://www.w3.org/2000/svg">
    <path d="M5 6.75C5 6.336 5.336 6 5.75 6H13.75C14.164 6 14.5 6.336 14.5 6.75C14.5 7.164 14.164 7.5 13.75 7.5H5.75C5.336 7.5 5 7.164 5 6.75ZM6.75 4.5H12.75C13.164 4.5 13.5 4.164 13.5 3.75C13.5 3.336 13.164 3 12.75 3H6.75C6.336 3 6 3.336 6 3.75C6 4.164 6.336 4.5 6.75 4.5ZM19.5 10.2371V12.75C19.5 15.369 17.369 17.5 14.75 17.5H4.75C2.131 17.5 0 15.369 0 12.75V10.2371C0 9.83306 0.0650166 9.43403 0.192017 9.05103L2.12701 3.24805C2.77401 1.30605 4.585 0 6.633 0H12.867C14.915 0 16.725 1.30505 17.373 3.24805L19.308 9.05103C19.435 9.43303 19.5 9.83206 19.5 10.2371ZM1.78998 9H6.75C7.164 9 7.5 9.336 7.5 9.75C7.5 10.991 8.509 12 9.75 12C10.991 12 12 10.991 12 9.75C12 9.336 12.336 9 12.75 9H17.71L15.951 3.72205C15.508 2.39305 14.269 1.5 12.868 1.5H6.63397C5.23297 1.5 3.99403 2.39305 3.55103 3.72205L1.78998 9ZM18 12.75V10.5H13.425C13.076 12.209 11.561 13.5 9.75 13.5C7.939 13.5 6.42401 12.209 6.07501 10.5H1.5V12.75C1.5 14.542 2.958 16 4.75 16H14.75C16.542 16 18 14.542 18 12.75Z"/>
  </symbol>
  <symbol id="icon-trash" viewBox="0 0 20 20" fill="none" xmlns="http://www.w3.org/2000/svg">
    <path d="M19 3.24902H15.441C14.902 3.24902 14.425 2.90502 14.255 2.39502L13.939 1.44604C13.7 0.730045 13.033 0.25 12.279 0.25H7.71997C6.96597 0.25 6.299 0.730021 6.06 1.44702L5.74402 2.39502C5.57402 2.90602 5.09698 3.25 4.55798 3.25H1C0.586 3.25 0.25 3.586 0.25 4C0.25 4.414 0.586 4.75 1 4.75H2.29797L3.065 16.25C3.196 18.213 4.83901 19.75 6.80701 19.75H13.194C15.161 19.75 16.805 18.212 16.936 16.25L17.703 4.75H19C19.414 4.75 19.75 4.414 19.75 4C19.75 3.586 19.414 3.24902 19 3.24902ZM7.48297 1.92004C7.51697 1.81804 7.61197 1.74902 7.71997 1.74902H12.279C12.387 1.74902 12.482 1.81807 12.516 1.91907L12.832 2.86804C12.876 3.00004 12.931 3.12705 12.993 3.24805H7.005C7.067 3.12605 7.12202 3.00007 7.16602 2.86707L7.48297 1.92004ZM15.438 16.149C15.36 17.327 14.374 18.249 13.193 18.249H6.80603C5.62603 18.249 4.63897 17.327 4.56097 16.149L3.80103 4.74902H4.55798C4.66498 4.74902 4.77 4.736 4.875 4.724C4.917 4.731 4.95502 4.74902 4.99902 4.74902H14.999C15.043 4.74902 15.081 4.731 15.123 4.724C15.228 4.736 15.332 4.74902 15.44 4.74902H16.197L15.438 16.149ZM12.75 8.99902V13.999C12.75 14.413 12.414 14.749 12 14.749C11.586 14.749 11.25 14.413 11.25 13.999V8.99902C11.25 8.58502 11.586 8.24902 12 8.24902C12.414 8.24902 12.75 8.58502 12.75 8.99902ZM8.75 8.99902V13.999C8.75 14.413 8.414 14.749 8 14.749C7.586 14.749 7.25 14.413 7.25 13.999V8.99902C7.25 8.58502 7.586 8.24902 8 8.24902C8.414 8.24902 8.75 8.58502 8.75 8.99902Z" fill="#41416E"/>
  </symbol>
</svg>
